<?xml version="1.0" encoding="UTF-8" standalone="no"?>
<!DOCTYPE svg PUBLIC "-//W3C//DTD SVG 1.1//EN" "http://www.w3.org/Graphics/SVG/1.1/DTD/svg11.dtd">
<svg version="1.1" xmlns="http://www.w3.org/2000/svg" xmlns:xlink="http://www.w3.org/1999/xlink" preserveAspectRatio="xMidYMid meet" viewBox="-0.9999999999999858 -1.0000000000000315 304 304" width="300" height="300"><defs><path d="M116.82 224.5C101.19 224.5 92.69 224.5 90.77 224.5C83.09 224.5 75.96 222.52 69.38 218.88C59.23 212.92 50.73 203.66 44.7 191.74C38.94 179.83 35.37 165.6 35.37 150.05C35.37 139.79 37.02 129.86 39.76 120.92C43.88 107.69 51.01 96.1 59.78 88.16C68.83 80.22 79.25 75.59 90.77 75.59C90.77 70.62 90.77 32.89 90.77 27.93C78.43 27.93 66.36 31.24 55.39 37.53C39.21 46.79 25.23 62.35 15.63 81.87C5.76 101.07 0 124.89 0 150.05C0 166.92 2.47 182.81 7.13 197.37C13.99 219.54 25.5 238.07 40.04 251.31C54.57 264.22 72.12 272.16 90.77 272.16C92.69 272.16 101.19 272.16 116.82 272.16C113.25 283.41 111.33 289.7 110.79 291.02C109.96 293.67 110.51 296.32 111.88 298.3C113.53 299.96 115.72 300.62 117.37 299.3C123.95 294.66 174.95 258.59 181.26 253.96C182.91 252.97 183.73 250.65 183.73 248.33C183.73 246.02 182.91 243.7 181.26 242.71C168.37 233.44 123.95 202 117.37 197.37C115.72 196.04 113.53 196.38 111.88 198.36C110.51 200.02 109.96 202.99 110.79 205.64C111.33 206.63 113.25 213.25 116.82 224.5Z" id="c2dxLeEo6n"></path><path d="M189.21 9.07C189.76 6.42 189.49 3.44 187.84 1.79C186.47 -0.2 184.28 -0.53 182.36 0.79C176.05 5.43 125.05 41.5 118.74 46.13C117.09 47.12 116.27 49.44 116.27 51.76C116.27 54.07 117.09 56.39 118.74 57.38C125.05 62.02 176.05 98.09 182.36 102.72C184.28 104.05 186.47 103.38 187.84 101.73C189.49 99.74 189.76 97.1 189.21 94.45C188.67 93.12 186.75 86.84 183.18 75.59C198.81 75.59 207.31 75.59 208.96 75.59C216.64 75.59 224.04 77.57 230.62 81.21C240.49 86.84 248.99 96.43 255.03 108.35C261.06 120.26 264.63 134.49 264.63 150.05C264.63 160.3 262.98 170.23 260.24 179.17C256.12 192.4 248.99 203.66 240.22 211.93C231.17 219.87 220.48 224.5 208.96 224.5C208.96 229.47 208.96 267.2 208.96 272.16C221.57 272.16 233.64 268.52 244.33 262.56C260.79 253.3 274.5 237.74 284.37 218.22C294.24 198.69 300 175.2 300 150.05C300 133.17 297.26 116.95 292.87 102.39C285.74 80.55 274.5 62.02 259.96 48.78C245.43 35.54 227.88 27.93 208.96 27.93C207.31 27.93 198.81 27.93 183.18 27.93C186.75 16.68 188.67 10.06 189.21 9.07Z" id="a19BX4b1Eb"></path></defs><g><g><use xlink:href="#c2dxLeEo6n" opacity="1" fill="#ffffff" fill-opacity="1"></use><g><use xlink:href="#c2dxLeEo6n" opacity="1" fill-opacity="0" stroke="#000000" stroke-width="1" stroke-opacity="0"></use></g></g><g><use xlink:href="#a19BX4b1Eb" opacity="1" fill="#ffffff" fill-opacity="1"></use><g><use xlink:href="#a19BX4b1Eb" opacity="1" fill-opacity="0" stroke="#000000" stroke-width="1" stroke-opacity="0"></use></g></g></g></svg>