<?xml version="1.0" encoding="UTF-8" standalone="no"?>
<!DOCTYPE svg PUBLIC "-//W3C//DTD SVG 1.1//EN" "http://www.w3.org/Graphics/SVG/1.1/DTD/svg11.dtd">
<svg version="1.1" xmlns="http://www.w3.org/2000/svg" xmlns:xlink="http://www.w3.org/1999/xlink" preserveAspectRatio="xMidYMid meet" viewBox="-1.000000000000007 -0.9999999999999787 304 304" width="300" height="300"><defs><path d="M0 2.11L121.21 75.92L242.41 150.26L121.76 225.13L1.1 299.47L0.55 150.79L0 2.11Z" id="b1RyqUyktY"></path><path d="M0 2.11L121.21 75.92L242.41 150.26L121.76 225.13L1.1 299.47L0.55 150.79L0 2.11Z" id="a33mxccmKR"></path><path d="M0 2.11L121.21 75.92L242.41 150.26L121.76 225.13L1.1 299.47L0.55 150.79L0 2.11Z" id="cazWD8n8n"></path><path d="M0 2.11L121.21 75.92L242.41 150.26L121.76 225.13L1.1 299.47L0.55 150.79L0 2.11Z" id="azc4PSpRX"></path><path d="M242.41 300L242.41 0L300 0L300 300L242.41 300Z" id="bfWjEu2ew"></path><path d="M242.41 300L242.41 0L300 0L300 300L242.41 300Z" id="dbTWwA0Va"></path><path d="M242.41 300L242.41 0L300 0L300 300L242.41 300Z" id="c1XxBa3jQ3"></path><path d="M242.41 300L242.41 0L300 0L300 300L242.41 300Z" id="b4hniC0gB3"></path></defs><g><g><use xlink:href="#b1RyqUyktY" opacity="1" fill="#ffffff" fill-opacity="1"></use><g><use xlink:href="#b1RyqUyktY" opacity="1" fill-opacity="0" stroke="#000000" stroke-width="1" stroke-opacity="0"></use></g></g><g><use xlink:href="#a33mxccmKR" opacity="1" fill="#000000" fill-opacity="0"></use><g><use xlink:href="#a33mxccmKR" opacity="1" fill-opacity="0" stroke="#000000" stroke-width="1" stroke-opacity="0"></use></g></g><g><use xlink:href="#cazWD8n8n" opacity="1" fill="#000000" fill-opacity="0"></use><g><use xlink:href="#cazWD8n8n" opacity="1" fill-opacity="0" stroke="#000000" stroke-width="1" stroke-opacity="0"></use></g></g><g><use xlink:href="#azc4PSpRX" opacity="1" fill="#000000" fill-opacity="0"></use><g><use xlink:href="#azc4PSpRX" opacity="1" fill-opacity="0" stroke="#000000" stroke-width="1" stroke-opacity="0"></use></g></g><g><use xlink:href="#bfWjEu2ew" opacity="1" fill="#ffffff" fill-opacity="1"></use><g><use xlink:href="#bfWjEu2ew" opacity="1" fill-opacity="0" stroke="#000000" stroke-width="1" stroke-opacity="0"></use></g></g><g><use xlink:href="#dbTWwA0Va" opacity="1" fill="#000000" fill-opacity="0"></use><g><use xlink:href="#dbTWwA0Va" opacity="1" fill-opacity="0" stroke="#000000" stroke-width="1" stroke-opacity="0"></use></g></g><g><use xlink:href="#c1XxBa3jQ3" opacity="1" fill="#000000" fill-opacity="0"></use><g><use xlink:href="#c1XxBa3jQ3" opacity="1" fill-opacity="0" stroke="#000000" stroke-width="1" stroke-opacity="0"></use></g></g><g><use xlink:href="#b4hniC0gB3" opacity="1" fill="#000000" fill-opacity="0"></use><g><use xlink:href="#b4hniC0gB3" opacity="1" fill-opacity="0" stroke="#000000" stroke-width="1" stroke-opacity="0"></use></g></g></g></svg>