<?xml version="1.0" encoding="UTF-8" standalone="no"?>
<!DOCTYPE svg PUBLIC "-//W3C//DTD SVG 1.1//EN" "http://www.w3.org/Graphics/SVG/1.1/DTD/svg11.dtd">
<svg version="1.1" xmlns="http://www.w3.org/2000/svg" xmlns:xlink="http://www.w3.org/1999/xlink" preserveAspectRatio="xMidYMid meet" viewBox="-0.9999999999999858 -0.9999999999999658 304.00000000000006 303.99999999999994" width="300" height="300"><defs><path d="M215.81 216.52C204.57 211.03 194.7 202.95 185.92 193.27C179.89 186.81 174.41 179.38 168.92 171.31C164.53 164.53 160.15 157.43 155.76 150C162.61 138.05 169.74 127.07 177.15 117.39C182.91 109.96 188.94 103.18 195.52 97.37C202.93 90.91 210.88 85.74 220.2 81.87C225.69 79.61 231.99 77.67 238.57 76.38C238.57 78.64 237.2 95.11 236.93 97.37C236.93 99.63 238.03 101.89 239.67 103.18C241.59 104.47 243.78 104.15 245.43 102.86C250.64 98.01 292.6 61.53 297.81 57.01C299.18 55.71 300 54.1 300 52.16C300 49.9 299.18 48.29 297.81 47C292.6 42.48 250.64 5.99 245.43 1.15C243.78 -0.15 241.59 -0.47 239.67 0.82C238.03 2.11 236.93 4.37 236.93 6.96C237.2 9.22 238.57 27.95 238.85 30.21C225.14 32.14 212.52 35.69 201.28 41.18C184.83 49.26 171.12 60.56 159.6 73.15C151.65 81.55 144.79 90.91 138.48 100.27C136.56 103.18 134.64 106.09 132.72 108.99C131.08 106.09 129.16 103.18 127.24 100.27C120.93 90.91 113.8 81.55 106.12 73.15C94.61 60.56 80.9 49.26 64.44 41.18C48.26 33.43 29.34 28.91 8.23 28.91C7.68 28.91 4.94 28.91 0 28.91C0 33.43 0 70.24 0 74.77C4.94 74.77 7.68 74.77 8.23 74.77C23.03 74.77 35.1 77.35 45.52 81.87C54.84 85.74 62.8 90.91 70.2 97.37C76.51 103.18 82.54 109.64 88.3 117.06C95.98 127.07 102.83 138.05 109.69 150C105.3 157.43 101.19 164.53 96.53 171.31C91.04 179.38 85.56 186.81 79.52 193.27C70.75 202.95 60.88 210.7 49.63 216.19C38.12 222.01 24.95 225.23 8.23 225.23C7.68 225.23 4.94 225.23 0 225.23C0 229.76 0 266.57 0 271.09C4.94 271.09 7.68 271.09 8.23 271.09C27.15 271.09 43.88 267.53 58.68 261.4C71.85 255.91 83.36 248.16 93.51 239.12C102.29 231.37 110.24 222.65 117.37 213.61C122.85 206.18 128.06 198.76 132.72 191.01C137.66 198.76 142.6 206.18 148.08 213.61C155.21 222.65 163.16 231.37 171.94 239.12C182.08 248.16 193.6 255.91 206.76 261.4C216.64 265.6 227.33 268.5 238.85 270.12C238.57 272.38 237.2 291.11 236.93 293.37C236.93 295.63 238.03 298.21 239.67 299.18C241.59 300.47 243.78 300.15 245.43 298.85C250.64 294.33 292.6 257.52 297.81 253C299.18 252.04 300 250.1 300 248.16C300 246.22 299.18 244.29 297.81 242.99C294.24 240.09 276.97 224.91 245.43 197.47C242.96 196.17 241.04 196.17 239.67 196.82C238.03 198.11 236.93 200.37 236.93 202.95C237.2 204.89 238.57 221.68 238.57 223.94C230.07 222.33 222.67 219.75 215.81 216.52Z" id="aOh1Ir5lR"></path></defs><g><g><use xlink:href="#aOh1Ir5lR" opacity="1" fill="#ffffff" fill-opacity="1"></use><g><use xlink:href="#aOh1Ir5lR" opacity="1" fill-opacity="0" stroke="#000000" stroke-width="1" stroke-opacity="0"></use></g></g></g></svg>